<?xml version="1.0" encoding="UTF-8"?>
<svg version="1.1" xmlns="http://www.w3.org/2000/svg" width="1600" height="482">
<path d="M0 0 C528 0 1056 0 1600 0 C1600 159.06 1600 318.12 1600 482 C1072 482 544 482 0 482 C0 322.94 0 163.88 0 0 Z " fill="#1B1B1B" transform="translate(0,0)"/>
<path d="M0 0 C3.70086256 2.81587369 5.70787312 5.53628894 7 10 C7 10.99 7 11.98 7 13 C7.66 13 8.32 13 9 13 C14.859375 24.71875 14.859375 24.71875 15.92871094 26.86083984 C16.64186415 28.28487094 17.35865513 29.70708616 18.07910156 31.12744141 C19.95047502 34.82737913 21.71704906 38.5182901 23.25 42.375 C23.58515625 43.20773438 23.9203125 44.04046875 24.265625 44.8984375 C25 47 25 47 25 49 C25.66 49 26.32 49 27 49 C29.77506686 53.49752215 31.63800251 57.68664463 33.21484375 62.71875 C34.76233136 67.21493289 36.61746422 71.61746422 40 75 C41.93830937 79.52568564 43.48118453 84.0277599 43 89 C43.99 89 44.98 89 46 89 C46.38671875 89.79664063 46.7734375 90.59328125 47.171875 91.4140625 C47.69265625 92.47367187 48.2134375 93.53328125 48.75 94.625 C49.26046875 95.66914063 49.7709375 96.71328125 50.296875 97.7890625 C51.93856584 101.02572767 51.93856584 101.02572767 54.01171875 103.95703125 C56.14635604 107.22399088 57.58939545 110.45241178 59.0625 114.0625 C60.78895415 118.28017713 62.64364936 122.10689895 65 126 C65.5 128.5625 65.5 128.5625 65 131 C62.21862604 133.8710957 58.98731218 135.56867327 55.5 137.4375 C51.66983885 139.50768628 48.97334311 141.78557502 46 145 C40.52054795 150 40.52054795 150 38 150 C37.79375 150.680625 37.5875 151.36125 37.375 152.0625 C34.58503177 158.02288668 29.60250658 162.39749342 25 167 C23.30911778 168.97956942 21.64169528 170.97945196 20 173 C19.278125 173.845625 18.55625 174.69125 17.8125 175.5625 C16.011971 177.98390107 15.08568805 180.20823073 14 183 C13.34 183.33 12.68 183.66 12 184 C11.67 184.99 11.34 185.98 11 187 C10.34 187 9.68 187 9 187 C8.95875 187.78375 8.9175 188.5675 8.875 189.375 C7.64351252 194.47687671 5.13227384 198.79594015 2 203 C1.34 203 0.68 203 0 203 C0.061875 203.763125 0.12375 204.52625 0.1875 205.3125 C0 208 0 208 -1.41796875 209.3515625 C-3.95632095 211.99646282 -4.29642756 215.23730458 -5.15625 218.72265625 C-6 221 -6 221 -9 223 C-10.1262719 225.68528441 -11.12829529 228.31244982 -12.0625 231.0625 C-14.74178404 238.87089202 -14.74178404 238.87089202 -17 240 C-17.73075648 242.3140622 -18.40138258 244.64828869 -19 247 C-19.66 247 -20.32 247 -21 247 C-21.99 250.96 -21.99 250.96 -23 255 C-23.66 255 -24.32 255 -25 255 C-25 256.32 -25 257.64 -25 259 C-25.66 259.33 -26.32 259.66 -27 260 C-27.94071696 262.1600539 -28.8010297 264.35527228 -29.625 266.5625 C-32.0940609 272.99838914 -34.95585357 279.12627715 -38.09033203 285.26196289 C-40.90121151 290.76586384 -43.50755644 296.34407038 -46 302 C-46.66 302 -47.32 302 -48 302 C-48.0825 302.61875 -48.165 303.2375 -48.25 303.875 C-49 306 -49 306 -50.75 307.125 C-51.4925 307.41375 -52.235 307.7025 -53 308 C-54.21042969 308.48726563 -54.21042969 308.48726563 -55.4453125 308.984375 C-56.28835937 309.31953125 -57.13140625 309.6546875 -58 310 C-60.35637648 311.07846698 -62.7057274 312.17112746 -65.0546875 313.265625 C-67 314 -67 314 -70 314 C-70 314.66 -70 315.32 -70 316 C-70.54527344 316.10957031 -71.09054688 316.21914063 -71.65234375 316.33203125 C-79.41984596 317.96519838 -86.70781034 320.49373072 -94.109375 323.3203125 C-95.83723214 323.94148428 -97.60586339 324.44607316 -99.375 324.9375 C-104.02686396 326.30097737 -108.64118603 327.86234411 -113 330 C-113.33 330.66 -113.66 331.32 -114 332 C-116.51171875 333 -116.51171875 333 -119.6875 334 C-120.72261719 334.33 -121.75773437 334.66 -122.82421875 335 C-123.87222656 335.33 -124.92023438 335.66 -126 336 C-129.24441884 337.03789711 -132.09769591 338.05080187 -135.125 339.625 C-138 341 -138 341 -142 341 C-142 341.66 -142 342.32 -142 343 C-142.6290625 343.10957031 -143.258125 343.21914063 -143.90625 343.33203125 C-148.13978325 344.11625503 -152.09261822 344.93278777 -156.0625 346.625 C-160.36094346 348.32519569 -164.42748209 348.78155021 -169 348 C-171.5625 346.5 -171.5625 346.5 -173 344 C-173.89789902 337.37799474 -172.02863876 332.84094619 -169 327 C-168.34 327 -167.68 327 -167 327 C-166.855625 326.236875 -166.71125 325.47375 -166.5625 324.6875 C-166 322 -166 322 -165 319 C-164.34 319 -163.68 319 -163 319 C-162.87753906 318.46890625 -162.75507813 317.9378125 -162.62890625 317.390625 C-161.85865792 314.46272452 -160.90419117 311.61888994 -159.9375 308.75 C-159.57527344 307.67234375 -159.21304688 306.5946875 -158.83984375 305.484375 C-158.56269531 304.66453125 -158.28554687 303.8446875 -158 303 C-157.34 303 -156.68 303 -156 303 C-155.01 299.04 -155.01 299.04 -154 295 C-153.34 295 -152.68 295 -152 295 C-152 294.01 -152 293.02 -152 292 C-151.34 292 -150.68 292 -150 292 C-149.8865625 291.29875 -149.773125 290.5975 -149.65625 289.875 C-148.6939589 285.6592485 -146.88894687 281.88643705 -145.15625 277.9375 C-144.10564615 275.26839833 -143.45670139 272.82324498 -143 270 C-142.34 270 -141.68 270 -141 270 C-140.87471924 269.41822998 -140.74943848 268.83645996 -140.62036133 268.23706055 C-139.99999595 265.99998539 -139.18476573 264.23980495 -138.07421875 262.20703125 C-137.69128662 261.49796631 -137.30835449 260.78890137 -136.91381836 260.05834961 C-136.5091333 259.31721924 -136.10444824 258.57608887 -135.6875 257.8125 C-132.53715427 251.96416906 -129.56517836 246.13412216 -127 240 C-126.34 240 -125.68 240 -125 240 C-124.9071875 238.824375 -124.9071875 238.824375 -124.8125 237.625 C-123.6967665 232.64711207 -121.39693773 228.47546306 -119 224 C-118.34 224 -117.68 224 -117 224 C-116.88785156 223.28457031 -116.77570313 222.56914062 -116.66015625 221.83203125 C-115.95543995 218.80884002 -114.86712202 216.43677312 -113.4375 213.6875 C-112.98246094 212.80449219 -112.52742188 211.92148437 -112.05859375 211.01171875 C-111.70925781 210.34785156 -111.35992187 209.68398438 -111 209 C-110.34 209 -109.68 209 -109 209 C-108.90203125 208.45472656 -108.8040625 207.90945313 -108.703125 207.34765625 C-107.42309381 200.89232655 -105.77418143 193.77418143 -101 189 C-100.34825392 187.52005257 -99.75109487 186.01571046 -99.1875 184.5 C-97.11372664 179.14981893 -94.62422188 174.09753005 -92 169 C-90.98241674 166.9722883 -89.97068935 164.94177697 -88.9609375 162.91015625 C-88.3328266 161.66159433 -87.69264031 160.41901522 -87.0390625 159.18359375 C-84.91354667 155.11110543 -83.21973726 150.99787612 -81.625 146.6875 C-79.28718849 140.45333598 -76.35010621 134.74468384 -73 129 C-72.34 129 -71.68 129 -71 129 C-70.86464844 128.45472656 -70.72929687 127.90945312 -70.58984375 127.34765625 C-69.92649222 124.70742929 -69.25389841 122.07054577 -68.5625 119.4375 C-68.31628906 118.48746094 -68.07007813 117.53742188 -67.81640625 116.55859375 C-67 114 -67 114 -65 111 C-64.34 111 -63.68 111 -63 111 C-62.731875 109.824375 -62.46375 108.64875 -62.1875 107.4375 C-61.18552881 103.39357312 -59.7340076 99.7832893 -58 96 C-57.34 96 -56.68 96 -56 96 C-55.87109375 95.42765625 -55.7421875 94.8553125 -55.609375 94.265625 C-53.79766355 87.52977474 -50.36751576 80.45196696 -46 75 C-45.34 75 -44.68 75 -44 75 C-44.061875 74.13117188 -44.12375 73.26234375 -44.1875 72.3671875 C-43.97164638 68.49081623 -42.94815927 66.45310542 -41 63.125 C-40.443125 62.15820312 -39.88625 61.19140625 -39.3125 60.1953125 C-38.879375 59.47085938 -38.44625 58.74640625 -38 58 C-37.34 58 -36.68 58 -36 58 C-35.67 54.7 -35.34 51.4 -35 48 C-34.34 48 -33.68 48 -33 48 C-32.9175 47.484375 -32.835 46.96875 -32.75 46.4375 C-31.67859775 42.95544268 -29.86476395 40.12799115 -28 37 C-27.34 37 -26.68 37 -26 37 C-25.9175 36.21625 -25.835 35.4325 -25.75 34.625 C-24.75634931 29.822355 -22.91286482 25.50190511 -21 21 C-20.34 21 -19.68 21 -19 21 C-19 19.68 -19 18.36 -19 17 C-18.34 17 -17.68 17 -17 17 C-16.87238281 16.45601562 -16.74476563 15.91203125 -16.61328125 15.3515625 C-15.90864967 12.64972674 -15.08230646 10.02020475 -14.1875 7.375 C-13.87167969 6.41335937 -13.55585938 5.45171875 -13.23046875 4.4609375 C-12 2 -12 2 -10.109375 0.69140625 C-6.71255692 -0.42199523 -3.48651084 -0.67928044 0 0 Z " fill="#FCFCFC" transform="translate(288,73)"/>
<path d="M0 0 C2.475 0.495 2.475 0.495 5 1 C5.185625 2.258125 5.37125 3.51625 5.5625 4.8125 C6.71481346 10.08495582 9.27549287 13.92692612 12.2578125 18.36328125 C15.91314263 23.89545129 18.43302254 29.90342854 21 36 C21.68366457 37.56418198 22.37132665 39.12662143 23.0625 40.6875 C23.38347656 41.41324219 23.70445312 42.13898438 24.03515625 42.88671875 C24.68378949 44.30740937 25.38066473 45.70694879 26.12109375 47.08203125 C27 49 27 49 27 52 C27.66 52 28.32 52 29 52 C31.17885757 55.60638495 33.09446109 59.02411094 34.5 63 C35.47043803 65.74162001 36.58835353 68.1798191 38.0625 70.6875 C40.3250624 74.55575185 42 77.49200163 42 82 C43.485 82.495 43.485 82.495 45 83 C47.0171068 86.5299369 48.55134462 90.24451809 50.13671875 93.984375 C53.22664113 101.1988544 56.5820266 108.27963257 60.0625 115.3125 C60.55496216 116.3168811 60.55496216 116.3168811 61.05737305 117.34155273 C63.10397409 121.44242 65.38953441 125.22066922 68 129 C69.88158799 132.19869958 70 133.04794544 70 137 C70.66 137 71.32 137 72 137 C76 149 76 149 76.9453125 152.3359375 C77.46738281 153.65464844 77.46738281 153.65464844 78 155 C78.99 155.33 79.98 155.66 81 156 C82.24609375 158.73046875 82.24609375 158.73046875 83.4375 162.1875 C85.34764345 167.59030739 85.34764345 167.59030739 88.3125 172.4375 C90.33890932 175.51464008 90.34414588 177.38646824 90 181 C90.66 181 91.32 181 92 181 C92 181.99 92 182.98 92 184 C92.66 184 93.32 184 94 184 C94 184.99 94 185.98 94 187 C94.66 187 95.32 187 96 187 C97.69433918 190.0469629 98.49467112 192.82821466 99.125 196.25 C99.29257812 197.14203125 99.46015625 198.0340625 99.6328125 198.953125 C99.75398437 199.62859375 99.87515625 200.3040625 100 201 C100.66 201 101.32 201 102 201 C101.42955233 204.99313372 100.84970366 208.06648153 98 211 C90.6579535 212.33832875 83.87560649 210.45316238 77 208 C76.05511719 207.690625 75.11023438 207.38125 74.13671875 207.0625 C70.76218209 205.919444 67.44676971 204.66303315 64.125 203.375 C62.97257812 202.92898438 61.82015625 202.48296875 60.6328125 202.0234375 C59.32957031 201.51683594 59.32957031 201.51683594 58 201 C58 200.34 58 199.68 58 199 C56.02 198.67 54.04 198.34 52 198 C52 197.34 52 196.68 52 196 C50.7625 195.938125 49.525 195.87625 48.25 195.8125 C43.0507029 195.24931083 38.77014145 193.38127253 34.01953125 191.27734375 C29.77953855 189.48371165 25.4369424 188.20739804 21 187 C21 186.34 21 185.68 21 185 C20.236875 185.061875 19.47375 185.12375 18.6875 185.1875 C13.6074073 184.9291902 8.77167467 183.77210405 4 182 C3.67 181.34 3.34 180.68 3 180 C0.64328449 179.20180463 -1.66213375 178.50852775 -4.0625 177.875 C-4.72572266 177.69324219 -5.38894531 177.51148438 -6.07226562 177.32421875 C-7.71291479 176.87569596 -9.35622449 176.43692614 -11 176 C-11 175.34 -11 174.68 -11 174 C-11.721875 174.103125 -12.44375 174.20625 -13.1875 174.3125 C-17.24480191 173.86168868 -18.35868828 172.06069557 -21 169 C-22.45310734 166.50085274 -23.60092856 163.90027768 -24.75 161.25 C-27.51849942 155.11593924 -30.43979389 149.11632531 -33.625 143.1875 C-34.37645498 141.78393602 -35.12776043 140.38029196 -35.87890625 138.9765625 C-36.2361377 138.30915039 -36.59336914 137.64173828 -36.96142578 136.95410156 C-38.5281504 134.00627273 -40.05249841 131.03986785 -41.5625 128.0625 C-42.03816406 127.12535156 -42.51382812 126.18820312 -43.00390625 125.22265625 C-44 123 -44 123 -44 121 C-44.66 121 -45.32 121 -46 121 C-46.27714844 120.37351562 -46.55429687 119.74703125 -46.83984375 119.1015625 C-47.20207031 118.28429687 -47.56429688 117.46703125 -47.9375 116.625 C-48.29714844 115.81289063 -48.65679687 115.00078125 -49.02734375 114.1640625 C-49.6569903 112.76316215 -50.31312642 111.37374716 -51 110 C-51.74411928 98.65218102 -50.30365676 88.07949204 -48 77 C-47.34 77 -46.68 77 -46 77 C-45.814375 75.7315625 -45.814375 75.7315625 -45.625 74.4375 C-44.97316635 70.85241494 -44.06336951 67.48548895 -43 64 C-42.79503906 63.29746094 -42.59007812 62.59492188 -42.37890625 61.87109375 C-40.4987676 55.76329869 -38.08645437 49.03980771 -33.44921875 44.47265625 C-31.83835195 42.8357377 -31.15406435 41.43644811 -30.3125 39.3125 C-29.879375 38.219375 -29.44625 37.12625 -29 36 C-28.01 36 -27.02 36 -26 36 C-25.88269531 35.40832031 -25.76539063 34.81664062 -25.64453125 34.20703125 C-24.96993033 31.89703418 -24.14669932 30.58039323 -22.6875 28.6875 C-20.95460647 26.37042989 -19.61578966 24.27274471 -18.25 21.6875 C-15.36078207 16.47053159 -11.02707946 12.34465117 -7 8 C-5.63984177 6.46361689 -4.28503127 4.92246985 -2.9375 3.375 C-2.36902344 2.72273437 -1.80054688 2.07046875 -1.21484375 1.3984375 C-0.81394531 0.93695313 -0.41304688 0.47546875 0 0 Z " fill="#FBFBFB" transform="translate(355,209)"/>
<path d="M0 0 C1.29349365 0.00523682 2.5869873 0.01047363 3.91967773 0.01586914 C4.9496714 0.01799156 4.9496714 0.01799156 6.00047302 0.02015686 C8.20144949 0.0257706 10.40232557 0.03832532 12.60327148 0.05102539 C14.09220231 0.05603863 15.58113473 0.06060184 17.07006836 0.06469727 C20.72700223 0.07574446 24.38387707 0.09301826 28.04077148 0.11352539 C30.62724029 7.72421182 32.97375206 15.30874748 35.01342773 23.08227539 C36.01284387 26.031123 37.15534538 27.69297834 39.04077148 30.11352539 C39.88452148 32.41040039 39.88452148 32.41040039 40.54077148 34.86352539 C41.45778298 38.15312219 42.46305027 41.31656234 43.72827148 44.48852539 C45.04077148 48.11352539 45.04077148 48.11352539 45.04077148 52.11352539 C45.70077148 52.11352539 46.36077148 52.11352539 47.04077148 52.11352539 C48.53898208 55.48449922 49.04077148 57.31794658 49.04077148 61.11352539 C49.70077148 61.11352539 50.36077148 61.11352539 51.04077148 61.11352539 C51.16194336 61.7284082 51.28311523 62.34329102 51.40795898 62.97680664 C51.57553711 63.78504883 51.74311523 64.59329102 51.91577148 65.42602539 C52.07819336 66.2265332 52.24061523 67.02704102 52.40795898 67.85180664 C52.98556148 70.36653657 52.98556148 70.36653657 55.04077148 73.11352539 C55.50336806 75.06303953 55.96471772 77.01287083 56.41577148 78.96508789 C57.03341621 81.08824162 57.84004808 82.75148899 58.91577148 84.67602539 C62.56543927 91.55002373 65.04077148 100.36204346 65.04077148 108.11352539 C56.46077148 108.11352539 47.88077148 108.11352539 39.04077148 108.11352539 C38.71077148 106.79352539 38.38077148 105.47352539 38.04077148 104.11352539 C37.38077148 104.11352539 36.72077148 104.11352539 36.04077148 104.11352539 C35.37068808 101.98960033 34.70480351 99.86435015 34.04077148 97.73852539 C33.66952148 96.55516602 33.29827148 95.37180664 32.91577148 94.15258789 C32.04077148 91.11352539 32.04077148 91.11352539 32.04077148 89.11352539 C18.51077148 89.11352539 4.98077148 89.11352539 -8.95922852 89.11352539 C-9.28922852 91.42352539 -9.61922852 93.73352539 -9.95922852 96.11352539 C-12.43422852 102.05352539 -12.43422852 102.05352539 -14.95922852 108.11352539 C-23.53922852 108.11352539 -32.11922852 108.11352539 -40.95922852 108.11352539 C-39.84820076 100.33633109 -39.84820076 100.33633109 -38.02172852 96.73852539 C-36.16931526 92.83234961 -35.14168971 89.10509221 -34.35375977 84.86352539 C-33.95922852 83.11352539 -33.95922852 83.11352539 -32.95922852 82.11352539 C-32.81485352 81.04102539 -32.67047852 79.96852539 -32.52172852 78.86352539 C-32.02463349 75.54955855 -31.24342234 73.16348572 -29.95922852 70.11352539 C-29.79422852 69.20602539 -29.62922852 68.29852539 -29.45922852 67.36352539 C-29.29422852 66.62102539 -29.12922852 65.87852539 -28.95922852 65.11352539 C-27.96922852 64.61852539 -27.96922852 64.61852539 -26.95922852 64.11352539 C-26.11758143 62.23864278 -26.11758143 62.23864278 -25.45922852 59.98852539 C-25.07637695 58.77422852 -25.07637695 58.77422852 -24.68579102 57.53540039 C-23.7459568 54.40261968 -22.8411215 51.2631432 -21.95922852 48.11352539 C-21.62922852 47.12352539 -21.29922852 46.13352539 -20.95922852 45.11352539 C-20.29922852 45.11352539 -19.63922852 45.11352539 -18.95922852 45.11352539 C-18.87286133 44.37489258 -18.78649414 43.63625977 -18.69750977 42.87524414 C-17.63833989 35.2278433 -15.49261519 28.96451941 -11.95922852 22.11352539 C-10.96922852 22.11352539 -9.97922852 22.11352539 -8.95922852 22.11352539 C-9.02110352 20.91727539 -9.08297852 19.72102539 -9.14672852 18.48852539 C-9.15406293 14.31524296 -7.98950241 11.78363589 -5.95922852 8.11352539 C-5.27242909 5.78603845 -4.60161809 3.45365883 -3.95922852 1.11352539 C-2.95922852 0.11352539 -2.95922852 0.11352539 0 0 Z " fill="#F8F8F8" transform="translate(750.959228515625,191.886474609375)"/>
<path d="M0 0 C10.23 0 20.46 0 31 0 C34 7 34 7 34.8125 10.6875 C35.61205918 14.13925551 36.93557471 16.88981812 38.625 20 C42.4532094 27.29811349 44.80750762 35.05699391 47.28369141 42.8984375 C47.76974854 44.42210937 47.76974854 44.42210937 48.265625 45.9765625 C48.55211914 46.89518066 48.83861328 47.81379883 49.13378906 48.76025391 C49.88703057 51.15665962 49.88703057 51.15665962 52 53 C52.87767259 55.36942632 53.68027906 57.71769384 54.4375 60.125 C56.35638287 66.11334068 56.35638287 66.11334068 58.5625 72 C59.99916718 75.6839678 60.91079521 79.48502825 61.875 83.3125 C63.33242244 89.0976554 65.30403509 94.32888712 68.046875 99.6328125 C69 102 69 102 69 107 C60.42 107 51.84 107 43 107 C42.67 105.68 42.34 104.36 42 103 C41.34 103 40.68 103 40 103 C39.51787786 101.43840941 39.03944127 99.87568072 38.5625 98.3125 C38.29566406 97.44238281 38.02882813 96.57226562 37.75390625 95.67578125 C37.04214945 93.1495978 36.51471428 90.5735714 36 88 C22.8 88 9.6 88 -4 88 C-4 88.66 -4 89.32 -4 90 C-4.99 90.495 -4.99 90.495 -6 91 C-6.5797881 93.10463079 -7.06551685 95.23564276 -7.5 97.375 C-8.29180502 101.25656593 -8.78929752 103.68394627 -11 107 C-13.70556641 107.34057617 -13.70556641 107.34057617 -17.1015625 107.29296875 C-18.31328125 107.28330078 -19.525 107.27363281 -20.7734375 107.26367188 C-22.67996094 107.2259668 -22.67996094 107.2259668 -24.625 107.1875 C-25.90375 107.17396484 -27.1825 107.16042969 -28.5 107.14648438 C-31.66708282 107.11103196 -34.83333541 107.06161441 -38 107 C-37.48501739 102.32015802 -36.87483582 97.99948605 -35.4375 93.5 C-35.16808594 92.6440625 -34.89867187 91.788125 -34.62109375 90.90625 C-34.41613281 90.2771875 -34.21117187 89.648125 -34 89 C-33.34 89 -32.68 89 -32 89 C-32 87.02 -32 85.04 -32 83 C-31.34 83 -30.68 83 -30 83 C-29.87496094 82.278125 -29.74992187 81.55625 -29.62109375 80.8125 C-29.00856179 78.03877037 -28.1477227 75.62091521 -27.0625 73 C-26.72347656 72.175 -26.38445312 71.35 -26.03515625 70.5 C-25.32995655 68.79687619 -24.62148961 67.09510239 -23.91015625 65.39453125 C-22.85576008 62.62051902 -22.40919058 59.93253252 -22 57 C-21.34 57 -20.68 57 -20 57 C-19.74476562 56.19949219 -19.74476562 56.19949219 -19.484375 55.3828125 C-17.28045828 48.60694087 -14.72134826 42.00213471 -11.90625 35.45703125 C-11.0589795 33.15990562 -10.7215006 31.36105458 -10.5625 28.9375 C-9.99861315 24.99029208 -9.49148273 23.89011996 -7 21 C-5.37397947 17.55666242 -4.47619981 14.07123993 -3.66015625 10.35546875 C-2.67214842 6.83021003 -1.28549589 3.42798904 0 0 Z " fill="#F9F9F9" transform="translate(1264,193)"/>
<path d="M0 0 C10.23 0 20.46 0 31 0 C35.5 9 35.5 9 35.75 15.5 C35.80671875 16.7271875 35.8634375 17.954375 35.921875 19.21875 C35.94765625 20.1365625 35.9734375 21.054375 36 22 C36.66 22 37.32 22 38 22 C38.495 25.465 38.495 25.465 39 29 C39.66 29 40.32 29 41 29 C41.17015625 29.54527344 41.3403125 30.09054688 41.515625 30.65234375 C43.55734361 37.0055639 45.93374902 43.17924818 49.11328125 49.05859375 C50.3384133 51.74093131 50.13219485 54.09171334 50 57 C50.66 57 51.32 57 52 57 C52 58.32 52 59.64 52 61 C52.66 61 53.32 61 54 61 C54.06316406 61.59683594 54.12632813 62.19367188 54.19140625 62.80859375 C55.07660262 69.07951118 56.87793204 74.47888222 59.375 80.25 C67 97.88454545 67 97.88454545 67 106 C58.42 106 49.84 106 41 106 C38.75 99.25 38.75 99.25 39 95 C38.34 95 37.68 95 37 95 C36.01 91.535 36.01 91.535 35 88 C21.8 88 8.6 88 -5 88 C-5.99 90.97 -6.98 93.94 -8 97 C-9.98 101.95 -9.98 101.95 -12 107 C-20.91 107 -29.82 107 -39 107 C-38 101 -38 101 -37 99.0625 C-35.79626748 96.85928937 -35.79626748 96.85928937 -35.5625 93.5625 C-35 90 -35 90 -33.6875 87.8984375 C-31.3158336 83.82488086 -29.94559217 79.51542592 -28.4375 75.0625 C-27.98213867 73.74088867 -27.98213867 73.74088867 -27.51757812 72.39257812 C-25.98567966 67.93705644 -24.48107203 63.47269015 -23 59 C-22.34 59 -21.68 59 -21 59 C-20.896875 58.21625 -20.79375 57.4325 -20.6875 56.625 C-19.80420046 51.9676024 -18.41971242 47.51807851 -17 43 C-16.34 43 -15.68 43 -15 43 C-14.88398437 41.99710938 -14.76796875 40.99421875 -14.6484375 39.9609375 C-14.08262147 36.01213719 -12.93013995 32.39804093 -11.625 28.625 C-11.17180105 27.30471288 -10.71867575 25.98440048 -10.265625 24.6640625 C-9.84796875 23.45492187 -9.4303125 22.24578125 -9 21 C-8.45585153 19.33414196 -7.91368545 17.66763262 -7.375 16 C-6.12329585 12.23058235 -4.61998056 8.62567077 -3 5 C-2.34 5 -1.68 5 -1 5 C-0.67 3.35 -0.34 1.7 0 0 Z " fill="#FAFAFA" transform="translate(1025,193)"/>
<path d="M0 0 C0.92232422 0.00902344 1.84464844 0.01804688 2.79492188 0.02734375 C5.05105809 0.0507234 7.30663684 0.08349084 9.5625 0.125 C9.5625 0.785 9.5625 1.445 9.5625 2.125 C10.8309375 2.0321875 10.8309375 2.0321875 12.125 1.9375 C19.49740699 2.33963129 25.88754189 6.62613985 31.5625 11.125 C33.375 13.625 33.375 13.625 34.5625 16.125 C35.26375 17.15625 35.965 18.1875 36.6875 19.25 C39.84006909 24.08393928 39.65389525 27.54988984 39.5625 33.125 C35.16755939 33.3575602 30.77419714 33.49950074 26.375 33.625 C24.50618164 33.72554687 24.50618164 33.72554687 22.59960938 33.828125 C13.5080851 34.02311748 13.5080851 34.02311748 10.72412109 31.37890625 C9.44921875 29.21875 9.44921875 29.21875 8.5612793 27.05273438 C7.27436193 24.56886747 6.1613972 24.06885877 3.5625 23.125 C-1.10263918 22.59829074 -4.08960101 22.4142261 -7.9375 25.25 C-10.6431249 27.88876139 -10.6431249 27.88876139 -11.0625 31.125 C-10.31464941 34.71468282 -8.84635266 36.41504076 -6.4375 39.125 C-6.4375 39.785 -6.4375 40.445 -6.4375 41.125 C-5.138125 41.558125 -5.138125 41.558125 -3.8125 42 C-0.6875 43.04166667 2.4375 44.08333333 5.5625 45.125 C5.5625 45.785 5.5625 46.445 5.5625 47.125 C6.42875 47.08375 7.295 47.0425 8.1875 47 C11.68608468 47.12957721 14.30801597 47.88519656 17.5625 49.125 C17.5625 49.785 17.5625 50.445 17.5625 51.125 C18.490625 51.269375 19.41875 51.41375 20.375 51.5625 C23.5625 52.125 23.5625 52.125 26.5625 53.125 C26.5625 53.785 26.5625 54.445 26.5625 55.125 C27.67625 55.2178125 27.67625 55.2178125 28.8125 55.3125 C32.42315729 56.37928511 33.40709336 58.1074307 35.5625 61.125 C36.09875 61.66125 36.635 62.1975 37.1875 62.75 C41.55482727 67.11732727 41.37899099 71.95959371 41.875 77.8125 C41.79341409 84.76089989 39.26740336 92.93849236 34.5625 98.125 C33.9025 98.125 33.2425 98.125 32.5625 98.125 C32.0675 100.105 32.0675 100.105 31.5625 102.125 C29.5825 102.455 27.6025 102.785 25.5625 103.125 C25.0675 104.61 25.0675 104.61 24.5625 106.125 C23.2425 106.125 21.9225 106.125 20.5625 106.125 C20.5625 106.785 20.5625 107.445 20.5625 108.125 C14.59709049 110.74727283 8.63992296 110.45619492 2.25 110.4375 C1.16009766 110.45361328 0.07019531 110.46972656 -1.05273438 110.48632812 C-10.09471514 110.49176528 -17.32017161 109.16420604 -24.6875 103.6875 C-25.51894531 103.07390625 -26.35039063 102.4603125 -27.20703125 101.828125 C-27.94308594 101.26609375 -28.67914062 100.7040625 -29.4375 100.125 C-30.8915625 99.0421875 -30.8915625 99.0421875 -32.375 97.9375 C-37.24751312 93.65559453 -38.56750174 89.45039912 -39.4375 83.125 C-39.4375 81.145 -39.4375 79.165 -39.4375 77.125 C-30.5275 77.125 -21.6175 77.125 -12.4375 77.125 C-11.1175 79.765 -9.7975 82.405 -8.4375 85.125 C-5.19523338 88.07251511 -2.76014954 89.35151204 1.5625 89.5 C5.15082916 89.30026575 8.27738619 88.64736981 11.5625 87.125 C12.93286149 83.01391554 13.71735869 79.38127164 12.5625 75.125 C9.87713258 72.5113159 6.86036831 70.86221906 3.5625 69.125 C2.5725 68.465 1.5825 67.805 0.5625 67.125 C-1.2628125 66.75375 -1.2628125 66.75375 -3.125 66.375 C-7.77612962 65.4034647 -12.16756573 63.93190001 -16.625 62.3125 C-17.30199951 62.0762793 -17.97899902 61.84005859 -18.67651367 61.59667969 C-26.84962972 58.55468136 -32.42461798 52.93977513 -37.05078125 45.546875 C-38.8754213 41.04438293 -38.97237729 37.12824838 -38.9375 32.3125 C-38.93250488 31.41901855 -38.92750977 30.52553711 -38.92236328 29.60498047 C-38.74777238 23.03675043 -37.8869376 18.18330801 -33.4375 13.125 C-32.96828125 12.5475 -32.4990625 11.97 -32.015625 11.375 C-28.63012204 7.5890612 -25.22477116 5.75086568 -20.4375 4.125 C-19.4475 4.125 -18.4575 4.125 -17.4375 4.125 C-17.4375 3.465 -17.4375 2.805 -17.4375 2.125 C-11.51968663 0.06310069 -6.23331786 -0.11667838 0 0 Z " fill="#F7F7F7" transform="translate(1142.4375,189.875)"/>
<path d="M0 0 C27.06 0 54.12 0 82 0 C82 6.6 82 13.2 82 20 C72.76 20.33 63.52 20.66 54 21 C53.67 49.05 53.34 77.1 53 106 C44.75 106 36.5 106 28 106 C27.67 77.95 27.34 49.9 27 21 C18.09 20.67 9.18 20.34 0 20 C0 13.4 0 6.8 0 0 Z " fill="#FBFBFB" transform="translate(824,193)"/>
<path d="M0 0 C8.25 0 16.5 0 25 0 C25.33 28.38 25.66 56.76 26 86 C37.22 86.33 48.44 86.66 60 87 C60 93.6 60 100.2 60 107 C40.2 107 20.4 107 0 107 C0 71.69 0 36.38 0 0 Z " fill="#F8F8F8" transform="translate(920,193)"/>
<path d="M0 0 C8.58 0 17.16 0 26 0 C26 35.64 26 71.28 26 108 C17.42 108 8.84 108 0 108 C0 72.36 0 36.72 0 0 Z " fill="#F7F7F7" transform="translate(1346,192)"/>
<path d="M0 0 C0.99 0 1.98 0 3 0 C3.23074219 0.73863281 3.46148438 1.47726563 3.69921875 2.23828125 C7.20892226 14.51679454 7.20892226 14.51679454 14 25 C14.27917421 29.34395071 14.08542138 33.64350967 14 38 C5.75 38 -2.5 38 -11 38 C-9.875 30.125 -9.875 30.125 -9 27 C-8.34 27 -7.68 27 -7 27 C-6.9175 26.236875 -6.835 25.47375 -6.75 24.6875 C-6.09750844 21.4794165 -5.22345891 18.79266184 -4.0625 15.75 C-2.10792595 10.56860187 -0.89942367 5.45571462 0 0 Z " fill="#222222" transform="translate(1038,223)"/>
<path d="M0 0 C0.99 0 1.98 0 3 0 C3.31453125 0.89460937 3.6290625 1.78921875 3.953125 2.7109375 C5.94702082 8.34429377 7.94286633 13.9604135 10.1875 19.5 C10.50589844 20.29148438 10.82429687 21.08296875 11.15234375 21.8984375 C11.43207031 22.59195313 11.71179688 23.28546875 12 24 C14.15798789 29.39496972 14 31.55817157 14 38 C5.75 38 -2.5 38 -11 38 C-10.24413291 32.70893038 -9.44529589 28.99015447 -7.625 24.125 C-7.17769531 22.908125 -6.73039063 21.69125 -6.26953125 20.4375 C-5.85058594 19.303125 -5.43164062 18.16875 -5 17 C-3.02058556 11.38748311 -1.36917222 5.79265172 0 0 Z " fill="#212121" transform="translate(761,223)"/>
<path d="M0 0 C0.99 0 1.98 0 3 0 C3.31453125 0.88300781 3.6290625 1.76601562 3.953125 2.67578125 C4.38109375 3.87589844 4.8090625 5.07601562 5.25 6.3125 C5.47598877 6.94679932 5.70197754 7.58109863 5.93481445 8.23461914 C7.32990921 12.14412316 8.75021084 16.04325993 10.1875 19.9375 C12.31257793 25.79652053 14 30.67591593 14 37 C5.75 37 -2.5 37 -11 37 C-9.875 29.125 -9.875 29.125 -9 26 C-8.34 26 -7.68 26 -7 26 C-6.82984375 24.54013672 -6.82984375 24.54013672 -6.65625 23.05078125 C-6.02424424 18.63230436 -4.79424351 14.45110789 -3.5 10.1875 C-3.27441406 9.42501953 -3.04882812 8.66253906 -2.81640625 7.87695312 C-1.14933036 2.29866071 -1.14933036 2.29866071 0 0 Z " fill="#292929" transform="translate(1278,224)"/>
<path d="M0 0 C8.91 0 17.82 0 27 0 C28.7772169 1.7772169 28.11988099 4.152472 28.12442017 6.51863098 C28.12082489 7.30984848 28.11722961 8.10106598 28.11352539 8.91625977 C28.11367142 9.74545929 28.11381744 10.57465881 28.1139679 11.4289856 C28.11326851 14.18315198 28.10547493 16.93725161 28.09765625 19.69140625 C28.09579216 21.59569766 28.09436822 23.49998955 28.09336853 25.40428162 C28.08954263 30.42667963 28.07971173 35.44904892 28.06866455 40.47143555 C28.05845198 45.5922812 28.05387124 50.71313148 28.04882812 55.83398438 C28.03808953 65.88933557 28.02101224 75.9446654 28 86 C28.99443115 85.99476318 29.9888623 85.98952637 31.01342773 85.98413086 C34.69033921 85.96607959 38.36724675 85.95456754 42.04418945 85.94506836 C43.63794614 85.94002843 45.23169819 85.9331965 46.82543945 85.92456055 C49.11150253 85.91248001 51.39750467 85.90676845 53.68359375 85.90234375 C54.40026718 85.89718246 55.11694061 85.89202118 55.85533142 85.88670349 C57.57063672 85.88650737 59.28581266 85.93807993 61 86 C62 87 62 87 62.11352539 89.04125977 C62.10828857 89.91580811 62.10305176 90.79035645 62.09765625 91.69140625 C62.09443359 92.63564453 62.09121094 93.57988281 62.08789062 94.55273438 C62.07532227 96.04256836 62.07532227 96.04256836 62.0625 97.5625 C62.05798828 98.55958984 62.05347656 99.55667969 62.04882812 100.58398438 C62.03700007 103.05604849 62.02051849 105.52799518 62 108 C61.67 108 61.34 108 61 108 C61 101.4 61 94.8 61 88 C58.55722656 88.01160156 56.11445312 88.02320313 53.59765625 88.03515625 C51.24129364 88.04294684 48.88493244 88.04902359 46.52856445 88.05493164 C44.88630536 88.05997174 43.24405077 88.06680378 41.60180664 88.07543945 C39.24624521 88.08751926 36.89074291 88.09323139 34.53515625 88.09765625 C33.79660904 88.10281754 33.05806183 88.10797882 32.2971344 88.11329651 C30.53101912 88.1134925 28.76502854 88.06194719 27 88 C25.21142938 86.21142938 25.88009421 83.79876866 25.87557983 81.41790771 C25.87917511 80.61733948 25.88277039 79.81677124 25.88647461 78.99194336 C25.88632858 78.15299026 25.88618256 77.31403717 25.8860321 76.44966125 C25.8867315 73.66302956 25.89452515 70.87646384 25.90234375 68.08984375 C25.90420783 66.16313209 25.90563178 64.23641995 25.90663147 62.30970764 C25.91045741 57.22812603 25.92028834 52.1465728 25.93133545 47.06500244 C25.94154794 41.88383366 25.94612874 36.70266031 25.95117188 31.52148438 C25.96191054 21.34764174 25.97950795 11.17382767 26 1 C17.75 1 9.5 1 1 1 C1 35.98 1 70.96 1 107 C0.67 107 0.34 107 0 107 C0 71.69 0 36.38 0 0 Z " fill="#767676" transform="translate(919,192)"/>
<path d="M0 0 C0.33 1.32 0.66 2.64 1 4 C0.34 4 -0.32 4 -1 4 C-0.95875 4.886875 -0.9175 5.77375 -0.875 6.6875 C-0.99897246 9.97277013 -1.61387904 12.05449295 -3 15 C-3.66 15 -4.32 15 -5 15 C-5.04898437 15.67546875 -5.09796875 16.3509375 -5.1484375 17.046875 C-5.22320313 17.93890625 -5.29796875 18.8309375 -5.375 19.75 C-5.44460938 20.63171875 -5.51421875 21.5134375 -5.5859375 22.421875 C-5.99850055 24.99066382 -6.71160957 26.75841015 -8 29 C-8.66 29 -9.32 29 -10 29 C-10.33 31.31 -10.66 33.62 -11 36 C-11.66 36 -12.32 36 -13 36 C-13.12375 37.175625 -13.2475 38.35125 -13.375 39.5625 C-13.79148644 43.5191212 -14.864677 47.19251434 -16 51 C-12.04137069 50.86157705 -8.08318673 50.71300994 -4.125 50.5625 C-2.99707031 50.52318359 -1.86914062 50.48386719 -0.70703125 50.44335938 C0.36933594 50.40146484 1.44570312 50.35957031 2.5546875 50.31640625 C4.04718018 50.26141968 4.04718018 50.26141968 5.56982422 50.20532227 C8.00779501 50.15040468 8.00779501 50.15040468 10 49 C9.67 49.99 9.34 50.98 9 52 C0.09 52 -8.82 52 -18 52 C-16.875 43 -16.875 43 -15.4375 38.5 C-15.16808594 37.6440625 -14.89867187 36.788125 -14.62109375 35.90625 C-14.41613281 35.2771875 -14.21117187 34.648125 -14 34 C-13.34 34 -12.68 34 -12 34 C-12 32.02 -12 30.04 -12 28 C-11.34 28 -10.68 28 -10 28 C-9.87496094 27.278125 -9.74992187 26.55625 -9.62109375 25.8125 C-9.00856179 23.03877037 -8.1477227 20.62091521 -7.0625 18 C-6.72347656 17.175 -6.38445312 16.35 -6.03515625 15.5 C-5.32995655 13.79687619 -4.62148961 12.09510239 -3.91015625 10.39453125 C-2.85576008 7.62051902 -2.40919058 4.93253252 -2 2 C-1.34 2 -0.68 2 0 2 C0 1.34 0 0.68 0 0 Z " fill="#9C9C9C" transform="translate(1244,248)"/>
<path d="M0 0 C0.66 0 1.32 0 2 0 C2.66 3.63 3.32 7.26 4 11 C12.58 11 21.16 11 30 11 C29.34 9.02 28.68 7.04 28 5 C28.375 2.625 28.375 2.625 29 1 C31 4 31 4 31 8 C31.66 8 32.32 8 33 8 C33 9.65 33 11.3 33 13 C28.92512506 13.12366555 24.85097699 13.21436476 20.7746582 13.2746582 C19.38839696 13.29979219 18.00226813 13.33390592 16.61645508 13.37719727 C14.62378963 13.43788396 12.63015467 13.46354879 10.63671875 13.48828125 C9.43748779 13.51446533 8.23825684 13.54064941 7.00268555 13.56762695 C4 13 4 13 2.1171875 10.609375 C0.56281553 6.97888384 0.33248434 3.92331519 0 0 Z " fill="#595959" transform="translate(1062,288)"/>
<path d="M0 0 C4.23663808 5.34184801 4 7.59260411 4 15 C-4.91 15 -13.82 15 -23 15 C-23.66 13.02 -24.32 11.04 -25 9 C-24.34 9 -23.68 9 -23 9 C-23 10.32 -23 11.64 -23 13 C-14.75 13 -6.5 13 2 13 C1.34 10.03 0.68 7.06 0 4 C0 2.68 0 1.36 0 0 Z " fill="#C0C0C0" transform="translate(1178,208)"/>
<path d="M0 0 C2 1 2 1 3.125 3.5625 C4 7 4 7 4 15 C-4.25 15 -12.5 15 -21 15 C-20.67 12.69 -20.34 10.38 -20 8 C-19.67 8 -19.34 8 -19 8 C-19 9.65 -19 11.3 -19 13 C-11.74 13 -4.48 13 3 13 C2.34 11.68 1.68 10.36 1 9 C0.5859375 6.640625 0.5859375 6.640625 0.375 4.25 C0.30023437 3.45078125 0.22546875 2.6515625 0.1484375 1.828125 C0.09945312 1.22484375 0.05046875 0.6215625 0 0 Z " fill="#595959" transform="translate(771,246)"/>
<path d="M0 0 C1.65 0.33 3.3 0.66 5 1 C5.33 2.98 5.66 4.96 6 7 C5.01 6.67 4.02 6.34 3 6 C3 5.34 3 4.68 3 4 C-2.53646117 8.7645624 -2.53646117 8.7645624 -7.75 13.875 C-9.94996549 15.95274519 -11.04092976 16.67121442 -14 17 C-12.40069566 12.95864413 -9.51339591 10.32092848 -6.4375 7.375 C-2.77285984 4.03597098 -2.77285984 4.03597098 0 0 Z " fill="#B0B0B0" transform="translate(355,209)"/>
<path d="M0 0 C4.53897705 -0.02465392 9.07791543 -0.04283789 13.61694336 -0.05493164 C15.16219766 -0.0599714 16.70744716 -0.0668032 18.25268555 -0.07543945 C20.46925029 -0.08752076 22.68575218 -0.09323173 24.90234375 -0.09765625 C25.5971434 -0.10281754 26.29194305 -0.10797882 27.00779724 -0.11329651 C28.6722933 -0.11349277 30.33665499 -0.06189129 32 0 C33 1 33 1 33.0625 4.0625 C33.041875 5.031875 33.02125 6.00125 33 7 C31 4 31 4 31 2 C20.77 2 10.54 2 0 2 C-0.33 2.99 -0.66 3.98 -1 5 C-0.67 3.35 -0.34 1.7 0 0 Z " fill="#616161" transform="translate(1264,191)"/>
<path d="M0 0 C1.34888732 0.00015905 2.69778075 0.00584927 4.04663086 0.01586914 C5.10991859 0.01799156 5.10991859 0.01799156 6.19468689 0.02015686 C8.46699173 0.02577096 10.73919936 0.03832576 13.01147461 0.05102539 C14.54858257 0.05603858 16.08569206 0.0606018 17.62280273 0.06469727 C21.39823103 0.07574497 25.17358632 0.09301898 28.94897461 0.11352539 C29.44397461 2.58852539 29.44397461 2.58852539 29.94897461 5.11352539 C29.45397461 3.62852539 29.45397461 3.62852539 28.94897461 2.11352539 C18.71897461 2.11352539 8.48897461 2.11352539 -2.05102539 2.11352539 C-2.38102539 3.76352539 -2.71102539 5.41352539 -3.05102539 7.11352539 C-3.38102539 7.11352539 -3.71102539 7.11352539 -4.05102539 7.11352539 C-4.09356895 5.11397793 -4.09183322 3.11310903 -4.05102539 1.11352539 C-3.05102539 0.11352539 -3.05102539 0.11352539 0 0 Z " fill="#5F5F5F" transform="translate(1027.051025390625,190.886474609375)"/>
<path d="M0 0 C2.18359375 0.3515625 2.18359375 0.3515625 4 1 C3.21753906 1.73605469 2.43507813 2.47210938 1.62890625 3.23046875 C0.60624544 4.21560072 -0.4158611 5.2013083 -1.4375 6.1875 C-1.95376953 6.67025391 -2.47003906 7.15300781 -3.00195312 7.65039062 C-6.05422078 10.62286043 -7.69288658 12.69253741 -8 17 C-8.66 17 -9.32 17 -10 17 C-9.67 23.27 -9.34 29.54 -9 36 C-9.66 35.67 -10.32 35.34 -11 35 C-12.03698256 12.87238746 -12.03698256 12.87238746 -6 6 C-5.49597656 5.37609375 -4.99195313 4.7521875 -4.47265625 4.109375 C-2.9375 2.375 -2.9375 2.375 0 0 Z " fill="#C5C5C5" transform="translate(1115,197)"/>
<path d="M0 0 C2.58646214 1.29323107 2.63668534 2.25699997 3.5625 4.9375 C4.29822324 7.03793267 5.00401313 9.00802626 6 11 C6.87736816 11.03758423 6.87736816 11.03758423 7.77246094 11.07592773 C10.43184471 11.19222962 13.09090403 11.31480067 15.75 11.4375 C16.67039062 11.47681641 17.59078125 11.51613281 18.5390625 11.55664062 C19.42851563 11.59853516 20.31796875 11.64042969 21.234375 11.68359375 C22.45979004 11.73858032 22.45979004 11.73858032 23.70996094 11.79467773 C25.9034423 11.99134275 27.88396413 12.40300594 30 13 C30.33 12.01 30.66 11.02 31 10 C31 11.32 31 12.64 31 14 C22.42 14 13.84 14 5 14 C4.67 12.68 4.34 11.36 4 10 C3.34 10 2.68 10 2 10 C1.34 6.7 0.68 3.4 0 0 Z " fill="#C6C6C6" transform="translate(785,286)"/>
<path d="M0 0 C0.33 0.66 0.66 1.32 1 2 C0.34 2 -0.32 2 -1 2 C-1 2.99 -1 3.98 -1 5 C-1.66 5 -2.32 5 -3 5 C-3.0825 6.11375 -3.165 7.2275 -3.25 8.375 C-3.87919026 13.6151219 -5.88630871 18.20241234 -8 23 C-8.66 23 -9.32 23 -10 23 C-10 24.98 -10 26.96 -10 29 C-10.66 29 -11.32 29 -12 29 C-12.33 29.99 -12.66 30.98 -13 32 C-12.34534117 27.526498 -11.31907685 23.32364079 -10 19 C-9.79503906 18.29746094 -9.59007812 17.59492188 -9.37890625 16.87109375 C-7.63570768 11.20816055 -5.33111489 5.92521277 -2 1 C-1.34 0.67 -0.68 0.34 0 0 Z " fill="#BCBCBC" transform="translate(322,254)"/>
<path d="M0 0 C2.2477975 2.05233685 3.0022242 3.00667261 4 6 C4.66 6.66 5.32 7.32 6 8 C6.27917421 12.34395071 6.08542138 16.64350967 6 21 C-2.25 21 -10.5 21 -19 21 C-19 19.35 -19 17.7 -19 16 C-18.67 17.32 -18.34 18.64 -18 20 C-10.41 20 -2.82 20 5 20 C5 19.01 5 18.02 5 17 C4.34 17 3.68 17 3 17 C2.95101563 16.39671875 2.90203125 15.7934375 2.8515625 15.171875 C2.77679687 14.37265625 2.70203125 13.5734375 2.625 12.75 C2.55539062 11.96109375 2.48578125 11.1721875 2.4140625 10.359375 C2.11458412 7.97917099 2.11458412 7.97917099 0.9609375 5.953125 C0 4 0 4 0 0 Z " fill="#696969" transform="translate(1046,240)"/>
<path d="M0 0 C0.33 0.66 0.66 1.32 1 2 C1.66 2 2.32 2 3 2 C3.66 5.3 4.32 8.6 5 12 C5.96679688 11.98839844 6.93359375 11.97679687 7.9296875 11.96484375 C15.36088832 11.91334038 22.61687607 12.02716485 30 13 C29.67 11.35 29.34 9.7 29 8 C29.66 8.33 30.32 8.66 31 9 C31 10.65 31 12.3 31 14 C22.42 14 13.84 14 5 14 C4.67 12.68 4.34 11.36 4 10 C3.34 10 2.68 10 2 10 C0.68373308 6.38026598 0 3.90432869 0 0 Z " fill="#C3C3C3" transform="translate(1302,286)"/>
<path d="M0 0 C0.33 0 0.66 0 1 0 C0.67 3.96 0.34 7.92 0 12 C-0.66 12 -1.32 12 -2 12 C-4.2511371 18.92248112 -4.2511371 18.92248112 -5.5625 26.0625 C-5.706875 27.031875 -5.85125 28.00125 -6 29 C-6.66 29.33 -7.32 29.66 -8 30 C-8.33 30.99 -8.66 31.98 -9 33 C-9.66 33 -10.32 33 -11 33 C-10.54810561 30.91526053 -10.08823175 28.83224964 -9.625 26.75 C-9.24214844 25.00976562 -9.24214844 25.00976562 -8.8515625 23.234375 C-8.14203595 20.53947599 -7.36903611 18.40474168 -6 16 C-5.34 16 -4.68 16 -4 16 C-3.87882813 15.18015625 -3.75765625 14.3603125 -3.6328125 13.515625 C-3.46523438 12.43796875 -3.29765625 11.3603125 -3.125 10.25 C-2.96257813 9.18265625 -2.80015625 8.1153125 -2.6328125 7.015625 C-2.06776118 4.32291129 -1.36577086 2.36427561 0 0 Z " fill="#9B9B9B" transform="translate(736,221)"/>
<path d="M0 0 C0.92232422 0.00902344 1.84464844 0.01804688 2.79492188 0.02734375 C5.05105809 0.0507234 7.30663684 0.08349084 9.5625 0.125 C9.5625 0.785 9.5625 1.445 9.5625 2.125 C11.5425 2.125 13.5225 2.125 15.5625 2.125 C15.5625 2.455 15.5625 2.785 15.5625 3.125 C14.48150024 3.10928955 14.48150024 3.10928955 13.37866211 3.09326172 C10.08581079 3.05146285 6.7930155 3.02559812 3.5 3 C2.36626953 2.98324219 1.23253906 2.96648437 0.06445312 2.94921875 C-5.88614691 2.91452137 -10.80833821 3.20737346 -16.4375 5.125 C-18.875 4.75 -18.875 4.75 -20.4375 4.125 C-19.4475 4.125 -18.4575 4.125 -17.4375 4.125 C-17.4375 3.465 -17.4375 2.805 -17.4375 2.125 C-11.51968663 0.06310069 -6.23331786 -0.11667838 0 0 Z " fill="#949494" transform="translate(1142.4375,189.875)"/>
<path d="M0 0 C13.53 0 27.06 0 41 0 C41 0.33 41 0.66 41 1 C27.8 1 14.6 1 1 1 C0.01 3.97 -0.98 6.94 -2 10 C-2.66 10.99 -3.32 11.98 -4 13 C-3.67 9.7 -3.34 6.4 -3 3 C-2.34 3 -1.68 3 -1 3 C-0.67 2.01 -0.34 1.02 0 0 Z " fill="#ACACAC" transform="translate(1019,280)"/>
<path d="M0 0 C5.65996416 -0.07402368 11.31964811 -0.12854173 16.97998047 -0.16479492 C18.90646267 -0.17990395 20.83291035 -0.20039214 22.75927734 -0.22631836 C25.52450057 -0.26260925 28.28927004 -0.27970479 31.0546875 -0.29296875 C32.3516304 -0.31619453 32.3516304 -0.31619453 33.67477417 -0.33988953 C36.10107422 -0.34057617 36.10107422 -0.34057617 40 0 C42.29013653 3.4352048 42.17842973 4.985331 42 9 C39.9375 7.25 39.9375 7.25 38 5 C38.33 3.68 38.66 2.36 39 1 C26.13 1 13.26 1 0 1 C0 0.67 0 0.34 0 0 Z " fill="#434343" transform="translate(1020,281)"/>
<path d="M0 0 C0.99 0 1.98 0 3 0 C3.18175781 0.59167969 3.36351562 1.18335938 3.55078125 1.79296875 C4.97345398 6.26526814 6.55234962 9.98585338 9 14 C13 22.84057971 13 22.84057971 13 28 C13.99 28.33 14.98 28.66 16 29 C16.33 30.65 16.66 32.3 17 34 C16.34 33.67 15.68 33.34 15 33 C15 32.01 15 31.02 15 30 C14.01 30 13.02 30 12 30 C11.74605469 29.02417969 11.49210937 28.04835937 11.23046875 27.04296875 C10.88628906 25.77066406 10.54210937 24.49835938 10.1875 23.1875 C9.85105469 21.92292969 9.51460938 20.65835938 9.16796875 19.35546875 C8.03553993 16.10210302 7.41620407 15.20663535 5 13 C4.03924563 11.17862622 3.14720647 9.31997616 2.3125 7.4375 C1.87550781 6.46683594 1.43851562 5.49617187 0.98828125 4.49609375 C0 2 0 2 0 0 Z " fill="#7C7C7C" transform="translate(319,132)"/>
<path d="M0 0 C0 3.44360632 -0.79591532 4.74795392 -2.5 7.6875 C-2.9640625 8.49574219 -3.428125 9.30398438 -3.90625 10.13671875 C-4.2671875 10.75160156 -4.628125 11.36648438 -5 12 C-5.66 12 -6.32 12 -7 12 C-6.938125 12.763125 -6.87625 13.52625 -6.8125 14.3125 C-7 17 -7 17 -8.4140625 18.34765625 C-10.45039551 20.46925443 -10.84026485 22.29383821 -11.5625 25.125 C-12.25390625 27.8203125 -12.25390625 27.8203125 -13 30 C-13.66 30.33 -14.32 30.66 -15 31 C-14.01 26.71 -13.02 22.42 -12 18 C-11.34 18 -10.68 18 -10 18 C-9.7834375 17.1028125 -9.7834375 17.1028125 -9.5625 16.1875 C-9.1127561 14.43849596 -8.57107659 12.71322977 -8 11 C-7.34 11 -6.68 11 -6 11 C-6 9.68 -6 8.36 -6 7 C-4.6875 5.5 -4.6875 5.5 -3 4 C-1.98199424 2.68036291 -0.97751635 1.34990354 0 0 Z " fill="#A8A8A8" transform="translate(295,264)"/>
<path d="M0 0 C0.66 0 1.32 0 2 0 C1.05066101 3.35433109 0.10251165 6.69246505 -1 10 C-1.66 10 -2.32 10 -3 10 C-3 11.32 -3 12.64 -3 14 C-3.66 14 -4.32 14 -5 14 C-5.12375 14.78375 -5.2475 15.5675 -5.375 16.375 C-6 19 -6 19 -8 21 C-8.64767793 23.57061311 -8.64767793 23.57061311 -9 26 C-9.66 26 -10.32 26 -11 26 C-9.70022952 21.1008651 -8.07626313 16.62440425 -6 12 C-5.34 12 -4.68 12 -4 12 C-4 10.68 -4 9.36 -4 8 C-3.34 8 -2.68 8 -2 8 C-1.34 5.36 -0.68 2.72 0 0 Z " fill="#606060" transform="translate(267,320)"/>
<path d="M0 0 C0.99 0 1.98 0 3 0 C3.70133599 1.57725347 4.385583 3.16211333 5.0625 4.75 C5.44535156 5.63171875 5.82820312 6.5134375 6.22265625 7.421875 C7.04600008 10.15256309 6.9773992 11.36901347 6 14 C5.34 12.35 4.68 10.7 4 9 C2.68 9 1.36 9 0 9 C-0.33 9.99 -0.66 10.98 -1 12 C-1.66 12 -2.32 12 -3 12 C-2.01 8.04 -1.02 4.08 0 0 Z " fill="#595959" transform="translate(761,223)"/>
<path d="M0 0 C2 1 2 1 3.18359375 4.09765625 C3.60870853 5.41698957 4.02626402 6.73877497 4.4375 8.0625 C4.8776999 9.43658496 5.31909627 10.81028723 5.76171875 12.18359375 C5.9736084 12.84472168 6.18549805 13.50584961 6.40380859 14.18701172 C7.11860994 16.36068689 7.91657348 18.49421988 8.75 20.625 C9.79556023 23.44801261 10.53668877 26.03480812 11 29 C7.85190262 27.42595131 7.61322733 24.72886311 6.4375 21.5 C5.22382213 17.45869019 5.22382213 17.45869019 3 14 C2.95936168 12.33382885 2.957279 10.66611905 3 9 C2.34 9 1.68 9 1 9 C0.67 6.03 0.34 3.06 0 0 Z " fill="#959595" transform="translate(1314,245)"/>
<path d="M0 0 C2.2477975 2.05233685 3.0022242 3.00667261 4 6 C17.365 6.495 17.365 6.495 31 7 C31 4.69 31 2.38 31 0 C31.33 0 31.66 0 32 0 C32 2.64 32 5.28 32 8 C22.43 8 12.86 8 3 8 C2.67 7.01 2.34 6.02 2 5 C1.34 5 0.68 5 0 5 C0 3.35 0 1.7 0 0 Z " fill="#4D4D4D" transform="translate(1151,216)"/>
<path d="M0 0 C-3.66291938 2.47785723 -6.6109185 3.48964169 -11 4 C-11 4.66 -11 5.32 -11 6 C-13.64 6.33 -16.28 6.66 -19 7 C-18.67 6.01 -18.34 5.02 -18 4 C-16.68 4 -15.36 4 -14 4 C-14 3.34 -14 2.68 -14 2 C-12.35 2 -10.7 2 -9 2 C-8.67 1.34 -8.34 0.68 -8 0 C-2.55072464 -1.27536232 -2.55072464 -1.27536232 0 0 Z " fill="#B0B0B0" transform="translate(157,410)"/>
<path d="M0 0 C0.99 0 1.98 0 3 0 C2.51017314 4.01658028 1.51344437 7.25892564 -0.17578125 10.92578125 C-1.56652808 14.42571758 -2.37230273 18.08627236 -3.25390625 21.7421875 C-3.50011719 22.48726562 -3.74632812 23.23234375 -4 24 C-4.66 24.33 -5.32 24.66 -6 25 C-5.505 20.545 -5.505 20.545 -5 16 C-4.34 16 -3.68 16 -3 16 C-2.27005441 12.40288072 -1.59025242 8.79939671 -0.9375 5.1875 C-0.67259766 3.72376953 -0.67259766 3.72376953 -0.40234375 2.23046875 C-0.26957031 1.49441406 -0.13679688 0.75835937 0 0 Z " fill="#8D8D8D" transform="translate(1251,222)"/>
<path d="M0 0 C1.33332095 2.6666419 0.67102033 4.16680303 0 7 C-0.66 7 -1.32 7 -2 7 C-2.0825 7.515625 -2.165 8.03125 -2.25 8.5625 C-3.1183697 11.38470152 -4.57370957 13.65988236 -6.078125 16.18359375 C-7.36325827 18.71574192 -7.72631664 21.19474557 -8 24 C-8.66 24 -9.32 24 -10 24 C-10.33 24.99 -10.66 25.98 -11 27 C-12.24546405 24.50907189 -11.7767578 23.58919267 -11 21 C-10.34 21 -9.68 21 -9 21 C-8.896875 20.319375 -8.79375 19.63875 -8.6875 18.9375 C-7.85274981 15.37084011 -6.50527246 12.33777806 -5 9 C-4.34 9 -3.68 9 -3 9 C-2.87625 8.443125 -2.7525 7.88625 -2.625 7.3125 C-1.94023145 4.77885636 -1.00866237 2.42078968 0 0 Z " fill="#818181" transform="translate(252,124)"/>
<path d="M0 0 C1.32 0 2.64 0 4 0 C4 0.66 4 1.32 4 2 C4.680625 1.938125 5.36125 1.87625 6.0625 1.8125 C9.12387063 2.00790664 11.31900826 2.85295536 14.0859375 4.1328125 C17.32304141 5.59941876 20.66636882 6.77182009 24 8 C19.47907032 9.45606519 16.48351204 8.27032841 12 7 C12 6.34 12 5.68 12 5 C11.319375 5.0825 10.63875 5.165 9.9375 5.25 C5.83124335 4.90053135 3.47678105 3.18150968 0 1 C0 0.67 0 0.34 0 0 Z " fill="#808080" transform="translate(1136,230)"/>
<path d="M0 0 C1.5 1 1.5 1 3 3 C3 5.64 3 8.28 3 11 C-5.58 11 -14.16 11 -23 11 C-23 10.67 -23 10.34 -23 10 C-14.75 10 -6.5 10 2 10 C1.34 8.02 0.68 6.04 0 4 C0 2.68 0 1.36 0 0 Z " fill="#A6A6A6" transform="translate(1090,289)"/>
<path d="M0 0 C1.25939498 3.52792055 0.75080075 5.31069832 -0.75 8.6875 C-2.53348173 12.83255753 -3.99778638 16.96317911 -5.2890625 21.28515625 C-6 23 -6 23 -8 24 C-7.690625 23.154375 -7.38125 22.30875 -7.0625 21.4375 C-5.9062893 18.02100938 -5.9062893 18.02100938 -5.5 14.4375 C-5.03830605 11.26335407 -4.23334131 8.92918561 -3 6 C-2.835 5.0925 -2.67 4.185 -2.5 3.25 C-2.335 2.5075 -2.17 1.765 -2 1 C-1.34 0.67 -0.68 0.34 0 0 Z " fill="#A6A6A6" transform="translate(724,256)"/>
<path d="M0 0 C0.33 0.66 0.66 1.32 1 2 C1.66 2 2.32 2 3 2 C3 3.32 3 4.64 3 6 C3.66 6 4.32 6 5 6 C5 7.32 5 8.64 5 10 C5.66 10 6.32 10 7 10 C9.42857143 17.42857143 9.42857143 17.42857143 8 21 C4.99382731 17.99382731 5.40414684 15.17618402 5 11 C4.34 11 3.68 11 3 11 C2.67 8.69 2.34 6.38 2 4 C1.34 4 0.68 4 0 4 C0 2.68 0 1.36 0 0 Z " fill="#7E7E7E" transform="translate(1061,211)"/>
<path d="M0 0 C3.94727588 -0.17942163 6.5980513 -0.09350689 10 2 C10 2.66 10 3.32 10 4 C11.13888672 4.03867187 11.13888672 4.03867187 12.30078125 4.078125 C13.29464844 4.13484375 14.28851563 4.1915625 15.3125 4.25 C16.29863281 4.29640625 17.28476562 4.3428125 18.30078125 4.390625 C21 5 21 5 22.85546875 7.046875 C23.23316406 7.69140625 23.61085938 8.3359375 24 9 C17.7683458 7.90029632 12.00868514 5.65642893 6.125 3.375 C4.97257812 2.92898438 3.82015625 2.48296875 2.6328125 2.0234375 C1.76398438 1.68570312 0.89515625 1.34796875 0 1 C0 0.67 0 0.34 0 0 Z " fill="#989898" transform="translate(413,409)"/>
<path d="M0 0 C0.33 0 0.66 0 1 0 C2.21428571 6.31428571 2.21428571 6.31428571 1.375 9 C-0.70883864 12.03103802 -2.81968578 15.03743564 -5 18 C-5.578125 16.13671875 -5.578125 16.13671875 -6 14 C-5.03567924 12.31243867 -4.0268343 10.6502694 -3 9 C-1.8867302 6.03460869 -0.92997511 3.02736577 0 0 Z " fill="#B2B2B2" transform="translate(996,269)"/>
<path d="M0 0 C1.39943663 2.79887327 0.54753576 4.12138828 -0.375 7.0625 C-0.65085937 7.96097656 -0.92671875 8.85945312 -1.2109375 9.78515625 C-2 12 -2 12 -3 13 C-3.23075082 14.34747084 -3.41153063 15.70377565 -3.5625 17.0625 C-3.706875 18.361875 -3.85125 19.66125 -4 21 C-4.66 21 -5.32 21 -6 21 C-6.10807131 19.06372231 -6.1856225 17.12572244 -6.25 15.1875 C-6.29640625 14.10855469 -6.3428125 13.02960938 -6.390625 11.91796875 C-6 9 -6 9 -4.0625 7.3125 C-3.381875 6.879375 -2.70125 6.44625 -2 6 C-0.71991738 2.91222828 -0.71991738 2.91222828 0 0 Z " fill="#5C5C5C" transform="translate(746,193)"/>
<path d="M0 0 C0.33 0 0.66 0 1 0 C1.33 2.31 1.66 4.62 2 7 C0.68 7.33 -0.64 7.66 -2 8 C-1.938125 8.721875 -1.87625 9.44375 -1.8125 10.1875 C-2.03746621 13.56199315 -2.99869763 15.30593911 -5 18 C-5.66 18 -6.32 18 -7 18 C-6.71640113 16.5608866 -6.42278601 15.12374482 -6.125 13.6875 C-5.96257812 12.88699219 -5.80015625 12.08648437 -5.6328125 11.26171875 C-5 9 -5 9 -3 6 C-2.34 6 -1.68 6 -1 6 C-0.67 4.02 -0.34 2.04 0 0 Z " fill="#B8B8B8" transform="translate(226,178)"/>
<path d="M0 0 C0.66 0 1.32 0 2 0 C0.46527032 4.72224516 -1.23945126 9.35855331 -3 14 C-3.66 14 -4.32 14 -5 14 C-5.33 14.66 -5.66 15.32 -6 16 C-5.88541307 14.56163249 -5.75790884 13.12429034 -5.625 11.6875 C-5.55539062 10.88699219 -5.48578125 10.08648437 -5.4140625 9.26171875 C-5 7 -5 7 -3 4 C-2.34 4 -1.68 4 -1 4 C-0.67 2.68 -0.34 1.36 0 0 Z " fill="#5D5D5D" transform="translate(265,96)"/>
<path d="M0 0 C1.125 3.75 1.125 3.75 0 6 C8.25 6 16.5 6 25 6 C25 6.33 25 6.66 25 7 C16.09 7 7.18 7 -2 7 C-1 1 -1 1 0 0 Z " fill="#B3B3B3" transform="translate(988,293)"/>
<path d="M0 0 C0.81286668 2.33959705 1.14155721 3.58602746 0.328125 5.96484375 C-0.02765625 6.61582031 -0.3834375 7.26679688 -0.75 7.9375 C-1.12125 8.62714844 -1.4925 9.31679687 -1.875 10.02734375 C-3.2139569 12.37516749 -4.56742269 14.7078763 -6 17 C-7.231394 14.53721199 -7.07159196 12.7204945 -7 10 C-6.01 10.33 -5.02 10.66 -4 11 C-4.0825 9.9275 -4.165 8.855 -4.25 7.75 C-4 4 -4 4 -2 1.5625 C-1.34 1.046875 -0.68 0.53125 0 0 Z " fill="#4C4C4C" transform="translate(204,222)"/>
<path d="M0 0 C2.77834684 1.38917342 2.99642986 2.95763553 4.125 5.8125 C4.47820312 6.68519531 4.83140625 7.55789062 5.1953125 8.45703125 C6 11 6 11 6 15 C6.66 15 7.32 15 8 15 C8 16.65 8 18.3 8 20 C2.92876765 13.91452118 0.55983177 7.83764475 0 0 Z " fill="#737373" transform="translate(1297,198)"/>
<path d="M0 0 C0.99 0.495 0.99 0.495 2 1 C2.33 1.99 2.66 2.98 3 4 C3.66 4.33 4.32 4.66 5 5 C5.08121924 6.60332791 5.13929134 8.20784026 5.1875 9.8125 C5.22230469 10.70582031 5.25710938 11.59914063 5.29296875 12.51953125 C4.95081002 15.41647515 4.24606427 16.22555028 2 18 C1.34 17.67 0.68 17.34 0 17 C0.474375 16.2575 0.94875 15.515 1.4375 14.75 C2.77869327 12.38949985 3.512312 10.63351523 4 8 C3.34 8 2.68 8 2 8 C0.23537317 4.91190305 0 3.76687864 0 0 Z " fill="#828282" transform="translate(453,402)"/>
<path d="M0 0 C3.32875935 3.64578405 5.0219329 8.21084385 6 13 C5.578125 15.28125 5.578125 15.28125 5 17 C2.5863604 14.5863604 2.24467148 12.90164101 1.375 9.625 C1.11460937 8.66851562 0.85421875 7.71203125 0.5859375 6.7265625 C0 4 0 4 0 0 Z " fill="#A7A7A7" transform="translate(807,273)"/>
<path d="M0 0 C0.99 0 1.98 0 3 0 C3.99 3.3 4.98 6.6 6 10 C5.01 9.01 4.02 8.02 3 7 C3 6.34 3 5.68 3 5 C2.54625 5.495 2.0925 5.99 1.625 6.5 C0 8 0 8 -2 8 C-1.34 5.36 -0.68 2.72 0 0 Z " fill="#505050" transform="translate(1278,224)"/>
<path d="M0 0 C1.05711427 3.19957435 0.95184778 4.96645088 -0.21484375 8.109375 C-0.48876953 8.86347656 -0.76269531 9.61757812 -1.04492188 10.39453125 C-1.48674805 11.56048828 -1.48674805 11.56048828 -1.9375 12.75 C-2.22818359 13.54277344 -2.51886719 14.33554688 -2.81835938 15.15234375 C-3.53594814 17.10512629 -4.26670906 19.05305941 -5 21 C-5.33 21 -5.66 21 -6 21 C-6.32043473 15.65942118 -5.57187557 12.64915968 -3 8 C-2.31039038 6.00779443 -1.63920943 4.00894394 -1 2 C-0.67 1.34 -0.34 0.68 0 0 Z " fill="#9C9C9C" transform="translate(1036,229)"/>
<path d="M0 0 C0.66 0.33 1.32 0.66 2 1 C1.37942344 3.08465525 0.7533655 5.16767928 0.125 7.25 C-0.22304687 8.41015625 -0.57109375 9.5703125 -0.9296875 10.765625 C-2.60619469 15.83185841 -2.60619469 15.83185841 -4 18 C-4.99 18.33 -5.98 18.66 -7 19 C-5.81246867 14.24987468 -4.22828298 10.20410167 -1.90234375 5.89453125 C-0.97458646 3.94664257 -0.45262281 2.10446276 0 0 Z " fill="#838383" transform="translate(183,264)"/>
<path d="M0 0 C0.66 0.33 1.32 0.66 2 1 C2.63019694 9.19256018 2.63019694 9.19256018 0 12.5625 C-0.99 13.2740625 -0.99 13.2740625 -2 14 C-2 10.95438718 -1.5626816 8.30174598 -1 5.3125 C-0.814375 4.31863281 -0.62875 3.32476562 -0.4375 2.30078125 C-0.2209375 1.16189453 -0.2209375 1.16189453 0 0 Z " fill="#383838" transform="translate(1154,264)"/>
<path d="M0 0 C2.44075297 0.42330402 4.87657829 0.86289462 7.3125 1.3125 C8.00279297 1.43044922 8.69308594 1.54839844 9.40429688 1.66992188 C13.11112435 2.36830966 15.70747672 2.86424977 18 6 C13.18061476 6.23509196 9.53701494 5.45184478 5 4 C5 3.34 5 2.68 5 2 C3.35 2 1.7 2 0 2 C0 1.34 0 0.68 0 0 Z " fill="#474747" transform="translate(1128,253)"/>
<path d="M0 0 C3.08669204 3.08669204 3.44855089 3.91927658 4 8 C3.34 8 2.68 8 2 8 C1.34 8.66 0.68 9.32 0 10 C-0.99 10 -1.98 10 -3 10 C-2.01 6.7 -1.02 3.4 0 0 Z " fill="#3C3C3C" transform="translate(324,358)"/>
<path d="M0 0 C0.99 0.33 1.98 0.66 3 1 C3 2.32 3 3.64 3 5 C3.66 5 4.32 5 5 5 C5 6.32 5 7.64 5 9 C5.66 9 6.32 9 7 9 C7.33 11.31 7.66 13.62 8 16 C4.85751322 14.42875661 4.29871176 11.7022315 2.875 8.5625 C2.33617187 7.38816406 1.79734375 6.21382813 1.2421875 5.00390625 C0 2 0 2 0 0 Z " fill="#606060" transform="translate(407,308)"/>
<path d="M0 0 C1.32 0 2.64 0 4 0 C3.57388649 1.75280733 3.13360733 3.50217435 2.6875 5.25 C2.44386719 6.22453125 2.20023438 7.1990625 1.94921875 8.203125 C1.00347644 10.98975665 -0.10708713 12.77304368 -2 15 C-1.67 12.03 -1.34 9.06 -1 6 C-0.34 6 0.32 6 1 6 C0.67 4.02 0.34 2.04 0 0 Z " fill="#BEBEBE" transform="translate(738,283)"/>
<path d="M0 0 C1.96143041 0.20094165 3.91931791 0.43671253 5.875 0.6875 C6.96554687 0.81511719 8.05609375 0.94273437 9.1796875 1.07421875 C12 2 12 2 13.3828125 4.58203125 C13.58648438 5.37996094 13.79015625 6.17789063 14 7 C12.35 6.67 10.7 6.34 9 6 C9 5.34 9 4.68 9 4 C4.545 3.01 4.545 3.01 0 2 C0 1.34 0 0.68 0 0 Z " fill="#626262" transform="translate(1160,239)"/>
<path d="M0 0 C0.99 0 1.98 0 3 0 C5.09230769 4.43076923 5.09230769 4.43076923 4.625 7.3125 C4.41875 7.869375 4.2125 8.42625 4 9 C3.67 8.34 3.34 7.68 3 7 C1.68 7.33 0.36 7.66 -1 8 C-0.67 5.36 -0.34 2.72 0 0 Z " fill="#595959" transform="translate(1038,223)"/>
<path d="M0 0 C0.33 0 0.66 0 1 0 C1 5.28 1 10.56 1 16 C0.67 16 0.34 16 0 16 C-1.43507302 11.5153968 -2.43322688 7.76549564 -2 3 C-1.34 2.01 -0.68 1.02 0 0 Z " fill="#575757" transform="translate(1103,216)"/>
<path d="M0 0 C0.66 0 1.32 0 2 0 C2 1.65 2 3.3 2 5 C2.66 5 3.32 5 4 5 C4 6.65 4 8.3 4 10 C4.66 10 5.32 10 6 10 C6.33 12.64 6.66 15.28 7 18 C3.17996389 16.08998194 2.2932969 10.87419335 1 7 C0.48804182 4.63583542 0.21003209 2.41536907 0 0 Z " fill="#535353" transform="translate(1326,277)"/>
<path d="M0 0 C2.44921875 1.11328125 2.44921875 1.11328125 5 3 C5.70703125 5.91796875 5.70703125 5.91796875 5.8125 9.1875 C5.86019531 10.27417969 5.90789062 11.36085938 5.95703125 12.48046875 C5.97121094 13.31191406 5.98539063 14.14335937 6 15 C4.19969878 12.29954818 3.06622934 9.93322119 1.875 6.9375 C1.52179688 6.05964844 1.16859375 5.18179687 0.8046875 4.27734375 C0 2 0 2 0 0 Z " fill="#646464" transform="translate(1079,260)"/>
<path d="M0 0 C0.33 0.66 0.66 1.32 1 2 C0.34 2 -0.32 2 -1 2 C-1 2.99 -1 3.98 -1 5 C-1.66 5 -2.32 5 -3 5 C-3.12246094 5.56203125 -3.24492187 6.1240625 -3.37109375 6.703125 C-4.0519869 9.18986519 -4.99352325 11.40514776 -6.0625 13.75 C-6.60583984 14.94882812 -6.60583984 14.94882812 -7.16015625 16.171875 C-7.43730469 16.77515625 -7.71445312 17.3784375 -8 18 C-9 16 -9 16 -8.375 13.4375 C-3.75 1.875 -3.75 1.875 0 0 Z " fill="#6E6E6E" transform="translate(322,254)"/>
<path d="M0 0 C-0.25 1.875 -0.25 1.875 -1 4 C-2.32407669 4.68486725 -3.65909241 5.34870203 -5 6 C-7.22816986 8.53442406 -7.22816986 8.53442406 -9 11 C-9.66 10.67 -10.32 10.34 -11 10 C-10.06862408 8.70391053 -9.1296434 7.41328368 -8.1875 6.125 C-7.66542969 5.40570313 -7.14335937 4.68640625 -6.60546875 3.9453125 C-4.67810267 1.60996382 -3.15532658 0 0 0 Z " fill="#717171" transform="translate(331,221)"/>
<path d="M0 0 C-1.82748903 2.46313739 -3.22976216 3.83428618 -6.26953125 4.48828125 C-8.51479346 4.72518293 -10.74455578 4.90361349 -13 5 C-11.5977422 2.1954844 -9.93929378 1.9557882 -7.0625 0.8125 C-6.16660156 0.44769531 -5.27070313 0.08289063 -4.34765625 -0.29296875 C-2 -1 -2 -1 0 0 Z " fill="#787878" transform="translate(187,399)"/>
<path d="M0 0 C0.33 0.66 0.66 1.32 1 2 C0.00390625 4.6015625 0.00390625 4.6015625 -1.4375 7.625 C-1.91058594 8.62789063 -2.38367188 9.63078125 -2.87109375 10.6640625 C-3.24363281 11.43492187 -3.61617187 12.20578125 -4 13 C-4.66 13 -5.32 13 -6 13 C-6.33 13.66 -6.66 14.32 -7 15 C-7 14.01 -7 13.02 -7 12 C-6.34 12 -5.68 12 -5 12 C-4.67 9.36 -4.34 6.72 -4 4 C-3.34 4 -2.68 4 -2 4 C-1.34 2.68 -0.68 1.36 0 0 Z " fill="#666666" transform="translate(175,284)"/>
<path d="M0 0 C2.64 0 5.28 0 8 0 C8 0.66 8 1.32 8 2 C8.9075 1.95875 9.815 1.9175 10.75 1.875 C13.8782046 1.99531556 15.38614006 2.3914708 18 4 C18 4.66 18 5.32 18 6 C17.360625 5.71125 16.72125 5.4225 16.0625 5.125 C12.79276379 3.92387241 9.59600445 3.22487435 6.18359375 2.5625 C3.91558716 1.97825501 2.05193062 1.11669694 0 0 Z " fill="#BDBDBD" transform="translate(1130,253)"/>
<path d="M0 0 C0 3.84759538 -0.99356258 5.72281888 -3 9 C-6.1875 11.375 -6.1875 11.375 -9 13 C-7.60073881 9.99192643 -5.94941211 7.4472645 -3.9375 4.8125 C-3.41027344 4.11769531 -2.88304687 3.42289063 -2.33984375 2.70703125 C-1 1 -1 1 0 0 Z " fill="#7A7A7A" transform="translate(312,240)"/>
<path d="M0 0 C1.42281643 2.84563285 0.57172876 4.40435414 -0.25 7.4375 C-0.62898437 8.88962891 -0.62898437 8.88962891 -1.015625 10.37109375 C-1.99880962 12.99682093 -2.86867396 14.23387309 -5 16 C-3.38235294 3.38235294 -3.38235294 3.38235294 0 0 Z " fill="#9E9E9E" transform="translate(1020,204)"/>
<path d="M0 0 C0.66 0 1.32 0 2 0 C2 1.32 2 2.64 2 4 C2.66 4 3.32 4 4 4 C4 5.32 4 6.64 4 8 C4.66 8 5.32 8 6 8 C6 9.32 6 10.64 6 12 C6.66 12 7.32 12 8 12 C7.67 12.99 7.34 13.98 7 15 C7 14.34 7 13.68 7 13 C6.34 13 5.68 13 5 13 C0.59225513 4.738041 0.59225513 4.738041 0 0 Z " fill="#606060" transform="translate(308,109)"/>
<path d="M0 0 C1.29312675 2.5862535 0.84290464 3.76416975 0.25 6.5625 C0.09015625 7.36816406 -0.0696875 8.17382812 -0.234375 9.00390625 C-0.48703125 9.66261719 -0.7396875 10.32132812 -1 11 C-1.99 11.33 -2.98 11.66 -4 12 C-4.33 12.99 -4.66 13.98 -5 15 C-4.37321829 11.33827525 -3.35548154 8.1181005 -1.9375 4.6875 C-1.39416016 3.36298828 -1.39416016 3.36298828 -0.83984375 2.01171875 C-0.56269531 1.34785156 -0.28554688 0.68398438 0 0 Z " fill="#606060" transform="translate(279,295)"/>
<path d="M0 0 C1.55913346 3.11826692 0.66585225 5.67073874 0 9 C-0.99 9.495 -0.99 9.495 -2 10 C-2.33 10.99 -2.66 11.98 -3 13 C-3.66 13 -4.32 13 -5 13 C-4.54554036 11.58208592 -4.08625056 10.16571954 -3.625 8.75 C-3.24214844 7.56664062 -3.24214844 7.56664062 -2.8515625 6.359375 C-2.04826333 4.13372042 -1.10288338 2.09068328 0 0 Z " fill="#BDBDBD" transform="translate(730,241)"/>
<path d="M0 0 C0.33 0 0.66 0 1 0 C1.22162329 1.62324086 1.42689803 3.248721 1.625 4.875 C1.74101563 5.77992188 1.85703125 6.68484375 1.9765625 7.6171875 C1.98429687 8.40351563 1.99203125 9.18984375 2 10 C1.34 10.66 0.68 11.32 0 12 C-0.6425235 14.06874034 -0.6425235 14.06874034 -1 16 C-1.66 16 -2.32 16 -3 16 C-2.01 10.72 -1.02 5.44 0 0 Z " fill="#595959" transform="translate(1184,264)"/>
<path d="M0 0 C0.66 0 1.32 0 2 0 C0.70022952 4.8991349 -0.92373687 9.37559575 -3 14 C-4.37095624 10.30962722 -3.60010967 8.29116165 -2.0625 4.75 C-1.68222656 3.85796875 -1.30195312 2.9659375 -0.91015625 2.046875 C-0.60980469 1.37140625 -0.30945312 0.6959375 0 0 Z " fill="#CACACA" transform="translate(1264,193)"/>
<path d="M0 0 C0.93045933 2.55144824 1.08564091 3.74006478 0.22265625 6.359375 C-0.16019531 7.14828125 -0.54304687 7.9371875 -0.9375 8.75 C-1.50791016 9.94882812 -1.50791016 9.94882812 -2.08984375 11.171875 C-2.39019531 11.77515625 -2.69054687 12.3784375 -3 13 C-3.33 13 -3.66 13 -4 13 C-4.63934602 7.88523181 -2.40533547 4.32745622 0 0 Z " fill="#7E7E7E" transform="translate(715,280)"/>
<path d="M0 0 C1.37095624 3.69037278 0.60010967 5.70883835 -0.9375 9.25 C-1.31777344 10.14203125 -1.69804688 11.0340625 -2.08984375 11.953125 C-2.39019531 12.62859375 -2.69054687 13.3040625 -3 14 C-3.33 14 -3.66 14 -4 14 C-4 12.02 -4 10.04 -4 8 C-3.34 8 -2.68 8 -2 8 C-2.04125 7.236875 -2.0825 6.47375 -2.125 5.6875 C-2 3 -2 3 0 0 Z " fill="#BCBCBC" transform="translate(755,240)"/>
<path d="M0 0 C2.31 0.33 4.62 0.66 7 1 C7 1.66 7 2.32 7 3 C9.97 3.495 9.97 3.495 13 4 C13 4.33 13 4.66 13 5 C4.80743982 4.64989059 4.80743982 4.64989059 1.4375 1.9375 C0.963125 1.298125 0.48875 0.65875 0 0 Z " fill="#7C7C7C" transform="translate(400,404)"/>
<path d="M0 0 C2.2477975 2.05233685 3.0022242 3.00667261 4 6 C4.66 6.66 5.32 7.32 6 8 C5.625 10.625 5.625 10.625 5 13 C4.67 13 4.34 13 4 13 C4 11.35 4 9.7 4 8 C3.34 8 2.68 8 2 8 C0.23537317 4.91190305 0 3.76687864 0 0 Z " fill="#B1B1B1" transform="translate(1046,240)"/>
<path d="M0 0 C0.99 0.33 1.98 0.66 3 1 C2.57405412 2.44096586 2.13373367 3.87768712 1.6875 5.3125 C1.44386719 6.11300781 1.20023438 6.91351563 0.94921875 7.73828125 C-0.04182023 10.09964573 -1.08074943 11.33879993 -3 13 C-2.85691406 12.43796875 -2.71382812 11.8759375 -2.56640625 11.296875 C-1.98879098 8.95454547 -1.45716693 6.60582341 -0.9375 4.25 C-0.76089844 3.45078125 -0.58429688 2.6515625 -0.40234375 1.828125 C-0.26957031 1.22484375 -0.13679687 0.6215625 0 0 Z " fill="#575757" transform="translate(194,239)"/>
<path d="M0 0 C1 2 1 2 0.29296875 4.12890625 C-0.07183594 4.93199219 -0.43664062 5.73507812 -0.8125 6.5625 C-1.16957031 7.36816406 -1.52664062 8.17382812 -1.89453125 9.00390625 C-3 11 -3 11 -5 12 C-5 10.68 -5 9.36 -5 8 C-4.34 8 -3.68 8 -3 8 C-2.87625 7.4225 -2.7525 6.845 -2.625 6.25 C-1.99351176 3.97664233 -1.11141809 2.0746471 0 0 Z " fill="#717171" transform="translate(190,252)"/>
<path d="M0 0 C2.04219706 1.69179328 2.91793306 2.63727666 3.51171875 5.26171875 C3.56972656 6.06222656 3.62773438 6.86273438 3.6875 7.6875 C3.75324219 8.49574219 3.81898437 9.30398437 3.88671875 10.13671875 C3.92410156 10.75160156 3.96148438 11.36648437 4 12 C2 11 2 11 0.875 7.6875 C0 4 0 4 0 0 Z " fill="#9C9C9C" transform="translate(1057,198)"/>
<path d="M0 0 C6.52307692 0.49230769 6.52307692 0.49230769 8.9375 3.0625 C9.288125 3.701875 9.63875 4.34125 10 5 C6.05140217 4.4359146 3.29120954 3.2568294 0 1 C0 0.67 0 0.34 0 0 Z " fill="#BBBBBB" transform="translate(427,413)"/>
<path d="M0 0 C0.66 0 1.32 0 2 0 C1.67 1.98 1.34 3.96 1 6 C0.34 6 -0.32 6 -1 6 C-1 6.99 -1 7.98 -1 9 C-1.66 9 -2.32 9 -3 9 C-2.67 7.02 -2.34 5.04 -2 3 C-1.34 3 -0.68 3 0 3 C0 2.01 0 1.02 0 0 Z " fill="#C5C5C5" transform="translate(136,365)"/>
<path d="M0 0 C0.99 0.495 0.99 0.495 2 1 C2 2.32 2 3.64 2 5 C2.66 5 3.32 5 4 5 C4 6.65 4 8.3 4 10 C3.01 9.67 2.02 9.34 1 9 C0.67 6.03 0.34 3.06 0 0 Z " fill="#939393" transform="translate(798,248)"/>
<path d="M0 0 C0.99 0 1.98 0 3 0 C2.6875 2.875 2.6875 2.875 2 6 C1.01 6.66 0.02 7.32 -1 8 C-0.67 5.36 -0.34 2.72 0 0 Z " fill="#666666" transform="translate(1251,222)"/>
<path d="M0 0 C1.98 0 3.96 0 6 0 C5.01 0.33 4.02 0.66 3 1 C3 1.66 3 2.32 3 3 C0.36 3.33 -2.28 3.66 -5 4 C-4.67 3.34 -4.34 2.68 -4 2 C-2.68 2 -1.36 2 0 2 C0 1.34 0 0.68 0 0 Z " fill="#A5A5A5" transform="translate(215,386)"/>
<path d="M0 0 C0.66 0 1.32 0 2 0 C2 1.32 2 2.64 2 4 C2.66 4 3.32 4 4 4 C4 5.32 4 6.64 4 8 C3.01 8 2.02 8 1 8 C0.67 5.36 0.34 2.72 0 0 Z " fill="#A4A4A4" transform="translate(1075,250)"/>
<path d="M0 0 C2 1 2 1 3.1875 3.8125 C3.96421451 6.85961076 4.10096399 8.13749363 3 11 C0.60236815 8.60236815 0.65719414 7.66726502 0.375 4.375 C0.30023437 3.55773437 0.22546875 2.74046875 0.1484375 1.8984375 C0.09945312 1.27195313 0.05046875 0.64546875 0 0 Z " fill="#747474" transform="translate(771,246)"/>
<path d="M0 0 C1.24546405 2.49092811 0.7767578 3.41080733 0 6 C-0.66 6 -1.32 6 -2 6 C-2.33 7.32 -2.66 8.64 -3 10 C-3.29296875 3.9453125 -3.29296875 3.9453125 -3 2 C-2.01 1.34 -1.02 0.68 0 0 Z " fill="#484848" transform="translate(1004,246)"/>
<path d="M0 0 C2.00773956 2.00773956 2.99392854 3.36873617 4 6 C3.625 8.25 3.625 8.25 3 10 C-0.00617269 6.99382731 0.40414684 4.17618402 0 0 Z " fill="#B9B9B9" transform="translate(1071,238)"/>
<path d="M0 0 C0.33 0 0.66 0 1 0 C1.85637238 2.92593895 2.38673104 5.08174288 1.17578125 7.95703125 C0.17852152 9.67511732 -0.90572915 11.34201387 -2 13 C-3.45047396 10.09905209 -2.45356803 8.44027404 -1.5625 5.375 C-1.27503906 4.37210938 -0.98757813 3.36921875 -0.69140625 2.3359375 C-0.46324219 1.56507813 -0.23507812 0.79421875 0 0 Z " fill="#4F4F4F" transform="translate(1275,232)"/>
<path d="M0 0 C0.33 1.32 0.66 2.64 1 4 C-0.65 5.32 -2.3 6.64 -4 8 C-3.34 6.02 -2.68 4.04 -2 2 C-1.34 2 -0.68 2 0 2 C0 1.34 0 0.68 0 0 Z " fill="#606060" transform="translate(273,310)"/>
<path d="M0 0 C0.99 0 1.98 0 3 0 C1.25 5.75 1.25 5.75 -1 8 C-1.04241723 5.66705225 -1.04092937 3.33297433 -1 1 C-0.67 0.67 -0.34 0.34 0 0 Z " fill="#4D4D4D" transform="translate(987,288)"/>
<path d="M0 0 C0.75 1.75 0.75 1.75 1 4 C-0.9375 6.25 -0.9375 6.25 -3 8 C-2.74438677 5.6568787 -2.40729228 3.32156597 -2 1 C-1.34 0.67 -0.68 0.34 0 0 Z " fill="#777777" transform="translate(724,256)"/>
<path d="M0 0 C2.0343459 1.41519715 2.90410393 2.54982123 3.421875 4.98046875 C3.66273952 6.98176954 3.83532741 8.9909944 4 11 C2 10 2 10 0.875 7.1875 C0 4 0 4 0 0 Z " fill="#717171" transform="translate(784,208)"/>
<path d="M0 0 C2.97 1.98 2.97 1.98 6 4 C5.67 5.32 5.34 6.64 5 8 C0 2.25 0 2.25 0 0 Z M5 2 C7 3 7 3 7 3 Z " fill="#5B5B5B" transform="translate(1174,202)"/>
</svg>
